# xmcd
#
# Track frame offsets: 
#        150
#        4849
#        20621
#        39145
#        54119
#        71745
#        87478
#        99509
#        119021
#        134434
#        149883
#        152752
#        169311
#
# Disc length: 2548 seconds
#
# Revision: 1
# Processed by: cddbd v1.5.2PL0 Copyright (c) Steve Scherf et al.
# Submitted via: ExactAudioCopyFreeDBPlugin 1.0
#
DISCID=b609f20d
DTITLE=Vivian Green - VGVI
DYEAR=2017
DGENRE=R&B
TTITLE0=Overture
TTITLE1=Vibes
TTITLE2=Promise
TTITLE3=I Don't Know
TTITLE4=That's What Love Can Do
TTITLE5=The 1st Time (Again)
TTITLE6=Happy With You
TTITLE7=Just Like Fools (Revisited) [Featuring Musiq Soulchild]
TTITLE8=Chances
TTITLE9=Mutual Feelings [Featuring Charisa, the ViolinDiva]
TTITLE10=Supa Dope Fresh Beat Show (Interlude)
TTITLE11=Sunglasses
TTITLE12=Stop Sleeping (See The Light)
EXTD=
EXTT0=
EXTT1=
EXTT2=
EXTT3=
EXTT4=
EXTT5=
EXTT6=
EXTT7=
EXTT8=
EXTT9=
EXTT10=
EXTT11=
EXTT12=
PLAYORDER=
